<svg t="1751860859471" class="icon" viewBox="0 0 1638 1024" version="1.1"
  xmlns="http://www.w3.org/2000/svg" p-id="5830" width="200" height="200">
  <path
    d="M293.682319 779.674333a74.444577 74.444577 0 0 1-59.084623-72.294183V309.864542c2.662392-36.147092 25.702323-64.511806 59.084623-72.294183l367.205298-79.97416L699.389902 0.003072H273.20238A270.847187 270.847187 0 0 0 1.023997 271.157459v469.80979c0 149.708351 123.18683 273.611979 272.178383 273.611979H699.389902L660.887617 857.088501l-367.205298-77.414168zM1361.711115 0.003072H932.963601l38.502285 157.490728 367.205298 79.97416a74.444577 74.444577 0 0 1 58.982223 72.294183v397.515607c-2.559992 36.147092-25.599923 64.511806-58.982223 72.294183l-367.205298 79.97416-38.502285 157.490728h428.747514a272.997581 272.997581 0 0 0 272.178383-273.611979V271.157459C1631.329506 121.449108 1510.702668 0.003072 1361.711115 0.003072zM660.785218 487.937608h313.34306v38.707084h-313.34306v-38.707084z"
    fill="#FD6B21" p-id="5831"></path>
</svg>