<svg t="1751878572456" class="icon" viewBox="0 0 1024 1024" version="1.1"
  xmlns="http://www.w3.org/2000/svg" p-id="12698" width="200" height="200">
  <path
    d="M602.624 68.096c-13.312 12.8-75.264 103.936-75.264 110.592 0 1.536 111.616 3.072 248.32 3.072H1024v-63.488c0-51.2-1.536-65.536-8.192-71.68-6.656-7.168-30.72-8.192-184.32-8.192-192 0-198.656 1.024-228.864 29.696zM8.192 918.016c8.704 22.016 28.672 44.032 50.688 57.856 14.848 9.216 34.304 9.728 452.096 9.728 404.416 0 445.696 1.472 468.096-18.432 4.16-3.648 7.68-8.064 12.672-13.312 5.376-5.632 9.856-9.984 13.568-14.848 19.392-25.408 18.688-66.176 18.688-383.488V212.48H566.784c-440.128 0-484.352-0.384-513.792 20.224-4.096 2.88-7.936 6.208-12.544 9.984a140.16 140.16 0 0 0-29.696 38.912C0 304.128 0 309.248 0 601.6c0 257.024 1.024 300.032 8.192 316.416z m244.736-304.128c17.408 37.376 4.096 84.48-31.232 105.984-14.848 9.216-28.16 12.288-62.464 13.312-50.688 2.048-76.288-6.656-99.328-33.792-11.776-14.336-26.624-50.688-22.016-55.296 1.024-1.024 13.312-3.072 27.136-5.12l25.6-2.56 9.728 19.456c12.288 25.088 28.672 33.792 58.368 30.72 16.384-1.536 26.112-5.632 34.304-15.872 6.656-7.168 11.776-15.36 11.776-17.408 0-13.824-22.016-27.136-64-38.912C71.168 594.432 48.128 573.44 49.152 529.408c0.512-47.104 38.4-76.288 99.328-76.288 55.296 0 92.16 25.088 102.4 68.096l4.096 18.944h-29.184c-27.136 0-29.184-1.024-36.352-16.896-9.728-20.992-32.768-28.16-61.44-19.456-23.552 6.656-30.72 22.016-17.92 36.352 4.608 5.12 27.136 14.336 50.176 20.48 53.248 14.336 81.92 30.72 92.672 53.248z m576.512 14.336V729.6H768V458.24h75.264c65.536 0 77.824 1.536 96.768 10.752 29.696 13.824 45.568 46.08 41.472 81.92-4.096 31.232-9.216 41.472-32.256 59.392-16.896 12.8-23.552 14.336-69.12 15.872l-50.688 2.048zM363.52 611.84v117.76H307.2V458.24h189.44v46.08H363.52v61.44h112.64v46.08H363.52z m296.96-107.52v225.28h-56.32V504.32H522.24v-46.08h220.16v46.08h-81.92z m168.96-1.024v79.36l36.864-2.56c40.96-3.072 55.296-13.312 55.296-39.936 0-22.528-16.384-32.768-56.832-34.816l-35.328-2.048z"
    fill="#13AF2E" p-id="12699"></path>
</svg>