<svg t="1751447227414" class="icon" viewBox="0 0 1024 1024" version="1.1"
    xmlns="http://www.w3.org/2000/svg" p-id="5385" width="200" height="200">
    <path
        d="M886.70021 734.293a145.28 145.28 0 0 1-106.666 41.174h-353.28C533.42021 672.427 624.30021 585.813 632.62021 577.493a648.96 648.96 0 0 1 48.214-44.16 139.307 139.307 0 0 1 103.04-42.666A153.6 153.6 0 0 1 886.70021 533.333a139.733 139.733 0 0 1 0 202.027m69.974-268.16a230.187 230.187 0 0 0-168.747-74.24 253.013 253.013 0 0 0-152.32 53.76 744.533 744.533 0 0 0-61.867 57.6c-16.426 16.64-370.346 362.667-370.346 362.667a359.04 359.04 0 0 0 65.92 4.053h448a507.733 507.733 0 0 0 82.346-4.053 253.227 253.227 0 0 0 152.32-66.134 234.667 234.667 0 0 0 4.694-334.72z"
        fill="#00A3FF" p-id="5386"></path>
    <path
        d="M380.46021 441.387a236.16 236.16 0 0 0-144.213-49.494A230.187 230.187 0 0 0 67.50021 466.133a240.64 240.64 0 0 0 4.054 338.347 218.453 218.453 0 0 0 131.84 61.867l95.36-90.88h-54.187A161.92 161.92 0 0 1 137.90021 734.293 149.333 149.333 0 0 1 133.84721 528a136.32 136.32 0 0 1 102.827-41.173A130.773 130.773 0 0 1 335.44721 528c16.427 16.64 61.867 49.493 78.293 66.133h4.054l61.866-61.866V528c-28.8-28.8-74.24-65.92-98.773-86.613"
        fill="#00C8DC" p-id="5387"></path>
    <path
        d="M812.67421 338.347a318.08 318.08 0 0 0-613.547 57.813c12.373 0 24.747-4.267 41.173-4.267s37.12 4.267 53.547 4.267a221.227 221.227 0 0 1 218.24-177.493A228.053 228.053 0 0 1 717.95421 350.72s4.053 4.053 4.053 0a695.68 695.68 0 0 1 90.667-12.373"
        fill="#006EFF" p-id="5388"></path>
</svg>